<mxfile host="Electron" agent="Mozilla/5.0 (X11; Linux x86_64) AppleWebKit/537.36 (KHTML, like Gecko) draw.io/26.2.2 Chrome/134.0.6998.178 Electron/35.1.2 Safari/537.36" version="26.2.2">
  <diagram name="Page-1" id="O8t6Qyk7ErdTuJQ2308s">
    <mxGraphModel dx="1414" dy="861" grid="0" gridSize="10" guides="1" tooltips="1" connect="1" arrows="1" fold="1" page="1" pageScale="1" pageWidth="1169" pageHeight="827" math="0" shadow="0">
      <root>
        <mxCell id="0" />
        <mxCell id="1" parent="0" />
        <mxCell id="0hstAnEbx82ijvApU3b4-1" value="&lt;div&gt;&amp;lt;&amp;lt;abstract&amp;gt;&amp;gt;&lt;/div&gt;&lt;i&gt;Element&lt;/i&gt;" style="swimlane;fontStyle=0;childLayout=stackLayout;horizontal=1;startSize=26;fillColor=none;horizontalStack=0;resizeParent=1;resizeParentMax=0;resizeLast=0;collapsible=1;marginBottom=0;whiteSpace=wrap;html=1;" vertex="1" parent="1">
          <mxGeometry x="439" y="54" width="229" height="151" as="geometry" />
        </mxCell>
        <mxCell id="0hstAnEbx82ijvApU3b4-2" value="&lt;p style=&quot;margin: 0px 0px 0px 8px;&quot;&gt;+ connectors: Connector[]&lt;/p&gt;&lt;p style=&quot;margin: 0px 0px 0px 8px;&quot;&gt;+ id: String&lt;/p&gt;&lt;p style=&quot;margin: 0px 0px 0px 8px;&quot;&gt;+ identifier: String&lt;/p&gt;&lt;p style=&quot;margin: 0px 0px 0px 8px;&quot;&gt;+ scAddress: ScAddr&lt;/p&gt;&lt;p style=&quot;margin: 0px 0px 0px 8px;&quot;&gt;+ scType: ScType&lt;/p&gt;&lt;p style=&quot;margin: 0px 0px 0px 8px;&quot;&gt;+ identifierPosition: IdentifierPosition&lt;/p&gt;" style="text;strokeColor=none;fillColor=none;align=left;verticalAlign=top;spacingLeft=4;spacingRight=4;overflow=hidden;rotatable=0;points=[[0,0.5],[1,0.5]];portConstraint=eastwest;whiteSpace=wrap;html=1;" vertex="1" parent="0hstAnEbx82ijvApU3b4-1">
          <mxGeometry y="26" width="229" height="125" as="geometry" />
        </mxCell>
        <mxCell id="0hstAnEbx82ijvApU3b4-3" style="rounded=0;orthogonalLoop=1;jettySize=auto;html=1;endArrow=block;endFill=0;endSize=16;" edge="1" parent="1" source="0hstAnEbx82ijvApU3b4-4" target="0hstAnEbx82ijvApU3b4-1">
          <mxGeometry relative="1" as="geometry" />
        </mxCell>
        <mxCell id="0hstAnEbx82ijvApU3b4-4" value="Node" style="swimlane;fontStyle=0;childLayout=stackLayout;horizontal=1;startSize=26;fillColor=none;horizontalStack=0;resizeParent=1;resizeParentMax=0;resizeLast=0;collapsible=1;marginBottom=0;whiteSpace=wrap;html=1;" vertex="1" parent="1">
          <mxGeometry x="257" y="238" width="281" height="104" as="geometry" />
        </mxCell>
        <mxCell id="0hstAnEbx82ijvApU3b4-5" value="+ x: float&lt;br&gt;+ topY: float&lt;div&gt;+ bottomY: float&lt;br&gt;&lt;/div&gt;&lt;div&gt;+&amp;nbsp;reservedVerticalElementsOnParent: uint32_t&lt;/div&gt;" style="text;strokeColor=none;fillColor=none;align=left;verticalAlign=top;spacingLeft=4;spacingRight=4;overflow=hidden;rotatable=0;points=[[0,0.5],[1,0.5]];portConstraint=eastwest;whiteSpace=wrap;html=1;" vertex="1" parent="0hstAnEbx82ijvApU3b4-4">
          <mxGeometry y="26" width="281" height="78" as="geometry" />
        </mxCell>
        <mxCell id="0hstAnEbx82ijvApU3b4-6" style="edgeStyle=none;shape=connector;rounded=0;orthogonalLoop=1;jettySize=auto;html=1;strokeColor=default;align=center;verticalAlign=middle;fontFamily=Helvetica;fontSize=11;fontColor=default;labelBackgroundColor=default;endArrow=block;endFill=0;endSize=16;" edge="1" parent="1" source="0hstAnEbx82ijvApU3b4-7" target="0hstAnEbx82ijvApU3b4-4">
          <mxGeometry relative="1" as="geometry" />
        </mxCell>
        <mxCell id="0hstAnEbx82ijvApU3b4-7" value="Link" style="swimlane;fontStyle=0;childLayout=stackLayout;horizontal=1;startSize=26;fillColor=none;horizontalStack=0;resizeParent=1;resizeParentMax=0;resizeLast=0;collapsible=1;marginBottom=0;whiteSpace=wrap;html=1;" vertex="1" parent="1">
          <mxGeometry x="335.75" y="385" width="123.5" height="80" as="geometry" />
        </mxCell>
        <mxCell id="0hstAnEbx82ijvApU3b4-8" value="&lt;p style=&quot;margin: 0px 0px 0px 8px;&quot;&gt;&lt;span style=&quot;background-color: transparent; color: light-dark(rgb(0, 0, 0), rgb(255, 255, 255));&quot;&gt;+&amp;nbsp;&lt;/span&gt;&lt;span style=&quot;background-color: initial; color: light-dark(rgb(0, 0, 0), rgb(255, 255, 255));&quot;&gt;content: String&lt;/span&gt;&lt;/p&gt;" style="text;strokeColor=none;fillColor=none;align=left;verticalAlign=top;spacingLeft=4;spacingRight=4;overflow=hidden;rotatable=0;points=[[0,0.5],[1,0.5]];portConstraint=eastwest;whiteSpace=wrap;html=1;" vertex="1" parent="0hstAnEbx82ijvApU3b4-7">
          <mxGeometry y="26" width="123.5" height="54" as="geometry" />
        </mxCell>
        <mxCell id="0hstAnEbx82ijvApU3b4-9" style="edgeStyle=none;shape=connector;rounded=0;orthogonalLoop=1;jettySize=auto;html=1;strokeColor=default;align=center;verticalAlign=middle;fontFamily=Helvetica;fontSize=11;fontColor=default;labelBackgroundColor=default;endArrow=block;endFill=0;endSize=16;" edge="1" parent="1" source="0hstAnEbx82ijvApU3b4-10" target="0hstAnEbx82ijvApU3b4-1">
          <mxGeometry relative="1" as="geometry" />
        </mxCell>
        <mxCell id="0hstAnEbx82ijvApU3b4-10" value="Connector" style="swimlane;fontStyle=0;childLayout=stackLayout;horizontal=1;startSize=26;fillColor=none;horizontalStack=0;resizeParent=1;resizeParentMax=0;resizeLast=0;collapsible=1;marginBottom=0;whiteSpace=wrap;html=1;" vertex="1" parent="1">
          <mxGeometry x="643" y="235" width="185" height="182" as="geometry" />
        </mxCell>
        <mxCell id="0hstAnEbx82ijvApU3b4-11" value="&lt;p style=&quot;margin: 0px 0px 0px 8px;&quot;&gt;&lt;span style=&quot;background-color: initial;&quot;&gt;+ otherElement&lt;/span&gt;&lt;span style=&quot;background-color: initial;&quot;&gt;: Node&lt;/span&gt;&lt;br&gt;&lt;/p&gt;&lt;p style=&quot;margin: 0px 0px 0px 8px;&quot;&gt;&lt;span style=&quot;background-color: initial;&quot;&gt;+ otherElementX&lt;/span&gt;&lt;span style=&quot;background-color: initial;&quot;&gt;: float&lt;/span&gt;&lt;br&gt;&lt;/p&gt;&lt;p style=&quot;margin: 0px 0px 0px 8px;&quot;&gt;+ otherElementY&lt;span style=&quot;background-color: initial;&quot;&gt;: float&lt;/span&gt;&lt;/p&gt;&lt;p style=&quot;margin: 0px 0px 0px 8px;&quot;&gt;&lt;span style=&quot;background-color: initial;&quot;&gt;+ otherElementBalance: float&lt;/span&gt;&lt;/p&gt;&lt;p style=&quot;margin: 0px 0px 0px 8px;&quot;&gt;&lt;span style=&quot;background-color: initial;&quot;&gt;+ baseElement&lt;/span&gt;&lt;span style=&quot;background-color: initial;&quot;&gt;: Element&lt;/span&gt;&lt;br&gt;&lt;/p&gt;&lt;p style=&quot;margin: 0px 0px 0px 8px;&quot;&gt;&lt;span style=&quot;background-color: initial;&quot;&gt;+ baseElementX&lt;/span&gt;&lt;span style=&quot;background-color: initial;&quot;&gt;: float&lt;/span&gt;&lt;br&gt;&lt;/p&gt;&lt;p style=&quot;margin: 0px 0px 0px 8px;&quot;&gt;+ baseElementY&lt;span style=&quot;background-color: initial;&quot;&gt;: float&lt;/span&gt;&lt;/p&gt;&lt;p style=&quot;margin: 0px 0px 0px 8px;&quot;&gt;&lt;span style=&quot;background-color: initial;&quot;&gt;+ baseElementBalance: float&lt;/span&gt;&lt;/p&gt;&lt;p style=&quot;margin: 0px 0px 0px 8px;&quot;&gt;+ bendPoints&lt;span style=&quot;background-color: initial;&quot;&gt;: float[]&lt;/span&gt;&lt;span style=&quot;background-color: initial;&quot;&gt;[2]&lt;/span&gt;&lt;/p&gt;&lt;p style=&quot;margin: 0px 0px 0px 8px;&quot;&gt;&lt;span style=&quot;background-color: initial;&quot;&gt;+ isReversed: bool&lt;/span&gt;&lt;/p&gt;" style="text;strokeColor=none;fillColor=none;align=left;verticalAlign=top;spacingLeft=4;spacingRight=4;overflow=hidden;rotatable=0;points=[[0,0.5],[1,0.5]];portConstraint=eastwest;whiteSpace=wrap;html=1;" vertex="1" parent="0hstAnEbx82ijvApU3b4-10">
          <mxGeometry y="26" width="185" height="156" as="geometry" />
        </mxCell>
      </root>
    </mxGraphModel>
  </diagram>
</mxfile>
